<mxfile host="Electron" modified="2024-07-05T10:08:06.158Z" agent="Mozilla/5.0 (Windows NT 10.0; Win64; x64) AppleWebKit/537.36 (KHTML, like Gecko) draw.io/24.4.13 Chrome/124.0.6367.207 Electron/30.0.6 Safari/537.36" etag="fnZoU_arj5AsQDZpBFmZ" version="24.4.13" type="device">
  <diagram name="Page-1" id="WFMmexf2BHW05EJQ7iUP">
    <mxGraphModel dx="819" dy="478" grid="1" gridSize="10" guides="1" tooltips="1" connect="1" arrows="1" fold="1" page="1" pageScale="1" pageWidth="850" pageHeight="1100" math="0" shadow="0">
      <root>
        <mxCell id="0" />
        <mxCell id="1" parent="0" />
        <mxCell id="yBKbMG2HaNFGakU93UDe-6" value="Get highlights" style="edgeStyle=orthogonalEdgeStyle;rounded=0;orthogonalLoop=1;jettySize=auto;html=1;entryX=0;entryY=0.5;entryDx=0;entryDy=0;fontFamily=&quot;Latin Modern Regular 12&quot;;fontSize=12;" edge="1" parent="1" source="yBKbMG2HaNFGakU93UDe-1" target="yBKbMG2HaNFGakU93UDe-3">
          <mxGeometry x="0.4736" relative="1" as="geometry">
            <Array as="points">
              <mxPoint x="270" y="250" />
            </Array>
            <mxPoint as="offset" />
          </mxGeometry>
        </mxCell>
        <mxCell id="yBKbMG2HaNFGakU93UDe-1" value="Highlight-Controller" style="rounded=0;whiteSpace=wrap;html=1;fontFamily=&quot;Latin Modern Mono 12&quot;;" vertex="1" parent="1">
          <mxGeometry x="220" y="160" width="100" height="40" as="geometry" />
        </mxCell>
        <mxCell id="yBKbMG2HaNFGakU93UDe-2" value="Selection-Controller" style="rounded=0;whiteSpace=wrap;html=1;fontFamily=&quot;Latin Modern Mono 12&quot;;verticalAlign=top;" vertex="1" parent="1">
          <mxGeometry x="420" y="160" width="100" height="40" as="geometry" />
        </mxCell>
        <mxCell id="yBKbMG2HaNFGakU93UDe-3" value="Highlight-Provider" style="rounded=0;whiteSpace=wrap;html=1;fontFamily=&quot;Latin Modern Mono 12&quot;;" vertex="1" parent="1">
          <mxGeometry x="420" y="230" width="100" height="40" as="geometry" />
        </mxCell>
        <mxCell id="yBKbMG2HaNFGakU93UDe-4" value="Get selected&lt;br style=&quot;font-size: 12px;&quot;&gt;object" style="endArrow=classic;html=1;rounded=0;fontFamily=&quot;Latin Modern Regular 12&quot;;fontSize=12;" edge="1" parent="1">
          <mxGeometry width="50" height="50" relative="1" as="geometry">
            <mxPoint x="320" y="179.71" as="sourcePoint" />
            <mxPoint x="420" y="179.71" as="targetPoint" />
          </mxGeometry>
        </mxCell>
        <mxCell id="yBKbMG2HaNFGakU93UDe-9" value="Get range data" style="edgeStyle=orthogonalEdgeStyle;rounded=0;orthogonalLoop=1;jettySize=auto;html=1;entryX=1;entryY=0.5;entryDx=0;entryDy=0;fontFamily=&quot;Latin Modern Regular 12&quot;;fontSize=12;" edge="1" parent="1" source="yBKbMG2HaNFGakU93UDe-7" target="yBKbMG2HaNFGakU93UDe-3">
          <mxGeometry x="0.2859" relative="1" as="geometry">
            <Array as="points">
              <mxPoint x="610" y="250" />
            </Array>
            <mxPoint as="offset" />
          </mxGeometry>
        </mxCell>
        <mxCell id="yBKbMG2HaNFGakU93UDe-7" value="Range-Visualization" style="rounded=0;whiteSpace=wrap;html=1;fontFamily=&quot;Latin Modern Mono 12&quot;;" vertex="1" parent="1">
          <mxGeometry x="560" y="160" width="100" height="40" as="geometry" />
        </mxCell>
        <mxCell id="yBKbMG2HaNFGakU93UDe-8" value="Selected object&#39;s" style="text;html=1;align=center;verticalAlign=middle;whiteSpace=wrap;rounded=0;fontFamily=&quot;Latin Modern Regular 12&quot;;" vertex="1" parent="1">
          <mxGeometry x="420" y="210" width="100" height="20" as="geometry" />
        </mxCell>
      </root>
    </mxGraphModel>
  </diagram>
</mxfile>
